<?xml version="1.0"?>
<svg width="512" height="512" xmlns="http://www.w3.org/2000/svg" xmlns:svg="http://www.w3.org/2000/svg" version="1.1">
 <g class="layer">
  <title>Layer 1</title>
  <path d="m0,0c0.96,-0.02 1.93,-0.03 2.92,-0.05c17.16,0.09 32.72,8.43 48.14,15.11c2.42,1.04 4.84,2.08 7.26,3.12c3.69,1.59 7.38,3.17 11.07,4.76c10.12,4.36 20.26,8.66 30.42,12.93c18.56,7.81 37.1,15.69 55.62,23.59c12.12,5.18 24.25,10.34 36.4,15.44c1.02,0.43 2.05,0.86 3.1,1.3c4.77,2.01 9.54,4.01 14.32,6.01c8.12,3.4 16.19,6.87 24.18,10.55c0.69,0.31 1.38,0.63 2.09,0.95c9.79,4.58 15.63,11.83 19.48,21.79c1.82,5.7 1.26,11.93 1.3,17.85c0.01,1.51 0.03,3.01 0.06,4.52c0.25,12.89 -1.51,22.76 -10.36,32.63c-5.67,5.89 -12.12,9.03 -20,11c-4.95,0 -9.9,0 -15,0c0,89.1 0,178.2 0,270c8.58,0 17.16,0 26,0c11.29,4.52 11.29,4.52 14,7.94c0.54,0.65 1.07,1.29 1.63,1.96c4.31,6.59 3.74,13.29 3.75,20.91c0.02,1.25 0.04,2.49 0.07,3.78c0.03,8.32 -0.61,13.96 -6.2,20.43c-0.55,0.45 -1.11,0.9 -1.69,1.36c-0.55,0.46 -1.11,0.92 -1.68,1.39c-4.84,3.16 -9.31,3.52 -14.97,3.49c-0.81,0 -1.63,0 -2.47,0.01c-2.73,0.01 -5.47,0 -8.21,0c-1.98,0 -3.96,0.01 -5.94,0.01c-5.44,0.01 -10.89,0.01 -16.33,0.01c-5.87,0 -11.74,0.01 -17.61,0.02c-11.51,0.02 -23.01,0.02 -34.51,0.02c-9.35,0.01 -18.7,0.01 -28.05,0.02c-2.69,0 -5.38,0 -8.07,0c-0.67,0 -1.34,0 -2.03,0c-18.81,0.01 -37.63,0.02 -56.44,0.02c-0.71,0 -1.42,0 -2.15,0c-3.59,0 -7.19,0 -10.79,0c-0.71,0 -1.42,0 -2.16,0c-1.44,0 -2.89,0 -4.33,0c-22.47,0 -44.94,0.01 -67.41,0.04c-25.24,0.03 -50.48,0.05 -75.72,0.05c-2.7,0 -5.39,0 -8.08,0c-0.66,0 -1.32,0 -2.01,0c-10,0 -20.01,0.01 -30.01,0.02c-11.38,0.02 -22.76,0.03 -34.14,0.01c-5.81,0 -11.62,0 -17.42,0.01c-5.32,0.02 -10.63,0.02 -15.95,0c-1.92,0 -3.85,0 -5.77,0.01c-2.62,0.01 -5.23,0 -7.84,-0.01c-0.75,0.01 -1.5,0.02 -2.27,0.03c-6.3,-0.09 -11.44,-2.14 -16.22,-6.28c-0.45,-0.55 -0.9,-1.11 -1.36,-1.69c-0.46,-0.55 -0.92,-1.11 -1.39,-1.68c-4.22,-6.47 -3.6,-13.24 -3.61,-20.69c-0.02,-1.25 -0.04,-2.49 -0.07,-3.78c-0.03,-8.32 0.67,-13.83 6.09,-20.4c0.53,-0.44 1.06,-0.87 1.61,-1.32c0.78,-0.68 0.78,-0.68 1.58,-1.37c12.04,-7.34 20.65,-4.32 36.17,-4.32c0,-89.1 0,-178.2 0,-270c-4.95,0 -9.9,0 -15,0c-11.21,-3.07 -20.24,-8.9 -26.22,-19.08c-4.05,-7.82 -4.03,-15.03 -4.08,-23.72c-0.01,-1.49 -0.03,-2.99 -0.06,-4.49c-0.22,-11.5 0.25,-22.27 8.61,-31.08c1.06,-1.16 1.06,-1.16 2.14,-2.34c6.18,-5.42 13.3,-8.69 20.8,-11.91c1.05,-0.46 2.11,-0.92 3.2,-1.4c13.8,-5.97 27.67,-11.79 41.53,-17.62c12.88,-5.42 25.73,-10.88 38.58,-16.36c17.16,-7.31 34.33,-14.59 51.52,-21.82c9.93,-4.19 19.85,-8.41 29.76,-12.68c3.19,-1.37 6.37,-2.74 9.56,-4.11c2.04,-0.87 4.07,-1.75 6.09,-2.63c28.82,-12.51 28.82,-12.51 44.57,-12.26z" fill="#FAF097" id="svg_1" transform="translate(256,-0.5)"/>
  <path d="m0,0c0.96,-0.02 1.93,-0.03 2.92,-0.05c17.16,0.09 32.72,8.43 48.14,15.11c2.42,1.04 4.84,2.08 7.26,3.12c3.69,1.59 7.38,3.17 11.07,4.76c10.12,4.36 20.26,8.66 30.42,12.93c18.56,7.81 37.1,15.69 55.62,23.59c12.12,5.18 24.25,10.34 36.4,15.44c1.02,0.43 2.05,0.86 3.1,1.3c4.77,2.01 9.54,4.01 14.32,6.01c8.12,3.4 16.19,6.87 24.18,10.55c0.69,0.31 1.38,0.63 2.09,0.95c9.79,4.58 15.63,11.83 19.48,21.79c1.82,5.7 1.26,11.93 1.3,17.85c0.01,1.51 0.03,3.01 0.06,4.52c0.25,12.89 -1.51,22.76 -10.36,32.63c-5.67,5.89 -12.12,9.03 -20,11c-4.95,0 -9.9,0 -15,0c0,89.1 0,178.2 0,270c8.58,0 17.16,0 26,0c11.29,4.52 11.29,4.52 14,7.94c0.54,0.65 1.07,1.29 1.63,1.96c4.31,6.59 3.74,13.29 3.75,20.91c0.02,1.25 0.04,2.49 0.07,3.78c0.03,8.32 -0.61,13.96 -6.2,20.43c-0.55,0.45 -1.11,0.9 -1.69,1.36c-0.55,0.46 -1.11,0.92 -1.68,1.39c-4.84,3.16 -9.31,3.52 -14.97,3.49c-0.81,0 -1.63,0 -2.47,0.01c-2.73,0.01 -5.47,0 -8.21,0c-1.98,0 -3.96,0.01 -5.94,0.01c-5.44,0.01 -10.89,0.01 -16.33,0.01c-5.87,0 -11.74,0.01 -17.61,0.02c-11.51,0.02 -23.01,0.02 -34.51,0.02c-9.35,0.01 -18.7,0.01 -28.05,0.02c-2.69,0 -5.38,0 -8.07,0c-0.67,0 -1.34,0 -2.03,0c-18.81,0.01 -37.63,0.02 -56.44,0.02c-0.71,0 -1.42,0 -2.15,0c-3.59,0 -7.19,0 -10.79,0c-0.71,0 -1.42,0 -2.16,0c-1.44,0 -2.89,0 -4.33,0c-22.47,0 -44.94,0.01 -67.41,0.04c-25.24,0.03 -50.48,0.05 -75.72,0.05c-2.7,0 -5.39,0 -8.08,0c-0.66,0 -1.32,0 -2.01,0c-10,0 -20.01,0.01 -30.01,0.02c-11.38,0.02 -22.76,0.03 -34.14,0.01c-5.81,0 -11.62,0 -17.42,0.01c-5.32,0.02 -10.63,0.02 -15.95,0c-1.92,0 -3.85,0 -5.77,0.01c-2.62,0.01 -5.23,0 -7.84,-0.01c-0.75,0.01 -1.5,0.02 -2.27,0.03c-6.3,-0.09 -11.44,-2.14 -16.22,-6.28c-0.45,-0.55 -0.9,-1.11 -1.36,-1.69c-0.46,-0.55 -0.92,-1.11 -1.39,-1.68c-4.22,-6.47 -3.6,-13.24 -3.61,-20.69c-0.02,-1.25 -0.04,-2.49 -0.07,-3.78c-0.03,-8.32 0.67,-13.83 6.09,-20.4c0.53,-0.44 1.06,-0.87 1.61,-1.32c0.78,-0.68 0.78,-0.68 1.58,-1.37c12.04,-7.34 20.65,-4.32 36.17,-4.32c0,-89.1 0,-178.2 0,-270c-4.95,0 -9.9,0 -15,0c-11.21,-3.07 -20.24,-8.9 -26.22,-19.08c-4.05,-7.82 -4.03,-15.03 -4.08,-23.72c-0.01,-1.49 -0.03,-2.99 -0.06,-4.49c-0.22,-11.5 0.25,-22.27 8.61,-31.08c1.06,-1.16 1.06,-1.16 2.14,-2.34c6.18,-5.42 13.3,-8.69 20.8,-11.91c1.05,-0.46 2.11,-0.92 3.2,-1.4c13.8,-5.97 27.67,-11.79 41.53,-17.62c12.88,-5.42 25.73,-10.88 38.58,-16.36c17.16,-7.31 34.33,-14.59 51.52,-21.82c9.93,-4.19 19.85,-8.41 29.76,-12.68c3.19,-1.37 6.37,-2.74 9.56,-4.11c2.04,-0.87 4.07,-1.75 6.09,-2.63c28.82,-12.51 28.82,-12.51 44.57,-12.26zm-196,196.5c0,39.6 0,79.2 0,120c11.22,0.33 22.44,0.66 34,1c1.32,0.99 2.64,1.98 4,3c0.44,3.5 0.44,3.5 0,7c-9.01,9.01 -25.27,3.64 -38,4c0,39.93 0,79.86 0,121c8.92,0.01 17.83,0.02 27.02,0.03c28.5,0.03 57.01,0.08 85.52,0.15c4.43,0.01 8.85,0.02 13.28,0.03c0.88,0 1.76,0 2.67,0c14.28,0.03 28.56,0.05 42.83,0.06c14.65,0.02 29.29,0.04 43.94,0.08c9.04,0.03 18.08,0.04 27.12,0.04c6.2,0 12.39,0.02 18.59,0.04c3.57,0.02 7.15,0.02 10.73,0.02c3.87,-0.01 7.75,0.01 11.62,0.03c1.14,-0.01 2.27,-0.01 3.44,-0.02c1.04,0.01 2.07,0.02 3.14,0.03c1.34,0 1.34,0 2.71,0.01c3.2,0.67 4.42,1.93 6.39,4.5c-0.06,3.63 -0.06,3.63 -1,7c-3.41,2.28 -4.6,2.25 -8.61,2.25c-1.17,0.01 -2.34,0.01 -3.55,0.02c-1.3,-0.01 -2.59,-0.01 -3.93,-0.02c-1.39,0 -2.77,0.01 -4.16,0.01c-3.81,0.01 -7.63,0 -11.45,0c-4.11,-0.01 -8.22,0 -12.33,0.01c-7.13,0 -14.26,0.01 -21.39,0c-10.31,0 -20.62,0.01 -30.94,0.03c-16.73,0.02 -33.47,0.04 -50.2,0.06c-1.5,0 -1.5,0 -3.04,0c-14.22,0.01 -28.45,0.02 -42.67,0.02c-1,0 -2.01,0 -3.04,0c-1,0 -2,0 -3.03,0c-16.67,0.01 -33.34,0.02 -50.01,0.06c-10.29,0.01 -20.58,0.02 -30.87,0.01c-7.04,-0.01 -14.09,0 -21.14,0.02c-4.07,0.01 -8.14,0.02 -12.21,0c-3.72,-0.01 -7.44,0 -11.16,0.02c-1.99,0 -3.98,-0.01 -5.97,-0.02c-1.18,0.01 -2.36,0.02 -3.57,0.03c-1.53,0 -1.53,0 -3.08,0c-3.36,0.64 -4.55,1.85 -6.65,4.5c-0.8,3.44 -0.6,6.91 -0.56,10.44c-0.03,0.94 -0.05,1.88 -0.07,2.85c0,0.91 0,1.83 0,2.77c0,0.83 0,1.65 0,2.51c0.95,3.65 2.71,5.08 5.63,7.43c2.86,0.49 5.12,0.67 7.97,0.63c0.8,0.01 1.61,0.01 2.43,0.02c2.7,0.02 5.39,0 8.09,-0.02c1.94,0.01 3.89,0.02 5.84,0.03c5.36,0.02 10.72,0.01 16.08,-0.01c5.78,-0.01 11.56,0.01 17.33,0.02c11.33,0.03 22.65,0.02 33.97,0.01c9.2,-0.01 18.4,-0.02 27.6,-0.01c1.31,0 2.62,0 3.96,0c2.66,0 5.32,0 7.97,0.01c24.22,0.01 48.44,0 72.65,-0.03c22.12,-0.02 44.23,-0.02 66.35,0c24.83,0.03 49.67,0.04 74.51,0.02c2.65,0 5.29,0 7.94,0c1.3,0 2.61,0 3.95,0c9.19,-0.01 18.38,0 27.57,0.01c11.2,0.02 22.4,0.01 33.59,-0.01c5.72,-0.02 11.43,-0.02 17.15,-0.01c5.23,0.02 10.46,0.01 15.68,-0.02c1.9,0 3.8,0 5.69,0.01c2.57,0.02 5.14,0 7.71,-0.02c0.74,0.01 1.48,0.02 2.25,0.03c3.92,-0.07 5.58,-0.55 8.68,-3.05c2.22,-2.84 2.67,-4.01 2.67,-7.55c0,-0.91 0,-1.83 0,-2.77c-0.02,-0.94 -0.04,-1.88 -0.07,-2.85c0.01,-0.95 0.02,-1.89 0.04,-2.87c0.05,-5.11 0.05,-5.11 -1.99,-9.68c-4.07,-2.94 -8.02,-2.43 -12.91,-2.37c-1.58,-0.01 -1.58,-0.01 -3.18,-0.01c-2.27,-0.01 -4.55,-0.01 -6.82,0c-3.6,0.02 -7.2,0.01 -10.79,0c-7.64,-0.03 -15.27,-0.02 -22.91,-0.01c-8.85,0.01 -17.69,0.01 -26.54,-0.02c-3.55,-0.01 -7.1,0.01 -10.64,0.02c-2.17,0 -4.34,-0.01 -6.52,-0.02c-0.98,0.01 -1.97,0.03 -2.99,0.04c-6.66,-0.06 -6.66,-0.06 -9.93,-2.36c-1.87,-2.93 -1.89,-4.75 -1.38,-8.16c1.12,-1.66 1.12,-1.66 3,-3c2.94,-0.4 2.94,-0.4 6.58,-0.43c0.68,-0.01 1.35,-0.02 2.05,-0.03c2.18,-0.03 4.36,-0.04 6.54,-0.05c1.35,-0.02 2.69,-0.03 4.04,-0.05c4.99,-0.06 9.98,-0.09 14.98,-0.13c16.73,-0.15 16.73,-0.15 33.81,-0.31c0,-39.93 0,-79.86 0,-121c-9.92,-0.02 -19.84,-0.04 -30.06,-0.06c-31.72,-0.06 -63.43,-0.14 -95.14,-0.22c-4.93,-0.01 -9.85,-0.03 -14.77,-0.04c-0.98,0 -1.96,0 -2.97,0c-15.89,-0.04 -31.77,-0.08 -47.66,-0.11c-16.29,-0.03 -32.58,-0.07 -48.87,-0.11c-10.06,-0.03 -20.12,-0.05 -30.18,-0.07c-6.89,-0.01 -13.78,-0.03 -20.67,-0.05c-3.98,-0.01 -7.96,-0.02 -11.94,-0.02c-3.64,-0.01 -7.28,-0.02 -10.92,-0.03c-1.95,-0.01 -3.9,-0.01 -5.85,-0.01c-1.15,0 -2.3,-0.01 -3.48,-0.02c-0.99,0 -1.99,0 -3.01,-0.01c-2.48,-0.25 -2.48,-0.25 -5.48,-2.25c-0.67,-7.09 -0.67,-7.09 1.18,-9.6c2.51,-1.93 4.17,-1.78 7.31,-1.78c1.15,-0.01 2.3,-0.02 3.48,-0.03c1.9,0 1.9,0 3.84,0.01c1.36,0 2.71,-0.01 4.07,-0.02c3.73,-0.02 7.47,-0.02 11.2,-0.01c4.02,0 8.04,-0.02 12.07,-0.03c6.97,-0.03 13.94,-0.04 20.91,-0.04c10.08,-0.01 20.16,-0.03 30.24,-0.06c16.36,-0.04 32.71,-0.07 49.06,-0.09c15.89,-0.02 31.78,-0.05 47.67,-0.09c0.98,0 1.96,0 2.96,0c4.92,-0.02 9.83,-0.03 14.74,-0.04c40.75,-0.09 81.51,-0.16 122.27,-0.22c0,-39.6 0,-79.2 0,-120c-129.36,0 -258.72,0 -392,0z" fill="#010101" id="svg_2" transform="translate(256,-0.5)"/>
  <path d="m255.19,14.63c0.67,-0.02 1.33,-0.05 2.02,-0.07c13.9,-0.08 27.66,7.58 40.17,12.95c1.98,0.84 3.97,1.69 5.96,2.53c4.14,1.76 8.29,3.53 12.43,5.3c6.01,2.57 12.03,5.14 18.05,7.7c1.95,0.82 3.9,1.65 5.84,2.48c0.96,0.41 1.93,0.82 2.92,1.24c2.95,1.26 5.89,2.51 8.84,3.77c14.11,6.01 28.24,11.98 42.37,17.94c11.49,4.84 22.97,9.7 34.44,14.59c1.21,0.52 2.42,1.03 3.66,1.56c5.91,2.52 11.81,5.04 17.71,7.56c2.17,0.92 4.34,1.85 6.51,2.78c1.04,0.44 2.07,0.88 3.14,1.34c4.63,1.97 9.26,3.92 13.93,5.81c0.79,0.32 1.57,0.63 2.38,0.96c1.42,0.57 2.84,1.13 4.26,1.69c7.69,3.09 12.79,7.33 16.36,14.79c1.66,4.99 1.44,10.12 1.39,15.33c0.02,1.12 0.04,2.24 0.07,3.39c-0.02,8.22 -1.58,14.97 -7.01,21.35c-5.38,4.95 -11.26,6.56 -18.4,6.46c-0.98,-0.01 -1.96,-0.02 -2.97,-0.03c-0.75,-0.02 -1.49,-0.03 -2.26,-0.04c-0.01,-0.81 -0.02,-1.62 -0.03,-2.45c-0.05,-3.68 -0.13,-7.37 -0.22,-11.05c-0.01,-1.27 -0.03,-2.54 -0.04,-3.85c-0.19,-7.37 -0.84,-12.35 -4.71,-18.65c-0.33,-0.99 -0.66,-1.99 -1,-3c-1.66,-1.08 -1.66,-1.08 -4,-2c-1.19,-0.55 -2.37,-1.09 -3.6,-1.65c-10.73,-4.82 -21.55,-9.4 -32.46,-13.79c-1.77,-0.72 -3.54,-1.44 -5.31,-2.17c-2.6,-1.07 -5.21,-2.12 -7.83,-3.18c-0.78,-0.32 -1.56,-0.65 -2.37,-0.98c-4.64,-1.84 -8.35,-2.67 -13.43,-2.23c-0.66,0.32 -1.32,0.65 -2,1c-1.11,4.01 -1.11,4.01 -1,8c3.26,2.96 6.38,4.79 10.46,6.41c1.61,0.64 1.61,0.64 3.24,1.29c1.14,0.45 2.29,0.9 3.46,1.36c2.43,0.97 4.86,1.94 7.28,2.91c3.18,1.27 6.36,2.53 9.55,3.79c4.33,1.71 8.66,3.44 12.99,5.17c1.14,0.45 2.28,0.9 3.46,1.36c1.07,0.43 2.13,0.85 3.23,1.29c0.94,0.37 1.87,0.74 2.84,1.13c2.49,1.29 2.49,1.29 6.49,5.29c0,13.53 0,27.06 0,41c-129.36,0 -258.72,0 -392,0c0,-13.54 0,-27.07 0,-41c6.75,-5.63 6.75,-5.63 9.84,-6.85c0.7,-0.28 1.4,-0.56 2.12,-0.85c0.75,-0.29 1.5,-0.58 2.27,-0.88c0.8,-0.32 1.61,-0.64 2.43,-0.97c1.74,-0.69 3.48,-1.38 5.22,-2.07c2.81,-1.1 5.61,-2.21 8.41,-3.33c2.94,-1.17 5.88,-2.34 8.83,-3.51c9.27,-3.69 18.52,-7.46 27.75,-11.25c4.57,-1.88 9.15,-3.75 13.72,-5.62c0.93,-0.38 1.85,-0.76 2.8,-1.15c11.08,-4.54 22.16,-9.06 33.24,-13.59c1.01,-0.41 2.03,-0.83 3.08,-1.25c16.73,-6.84 33.48,-13.63 50.24,-20.39c0.83,-0.34 1.66,-0.68 2.52,-1.02c1.53,-0.62 3.06,-1.24 4.59,-1.85c0.68,-0.28 1.37,-0.56 2.07,-0.84c0.66,-0.26 1.32,-0.52 2,-0.79c1.77,-0.75 3.48,-1.62 5.19,-2.5c9.09,-3.19 16.85,-1.07 25.43,2.55c1.49,0.61 1.49,0.61 3.02,1.23c3.23,1.31 6.45,2.65 9.67,3.99c2.24,0.91 4.48,1.83 6.71,2.74c6.63,2.7 13.24,5.45 19.85,8.2c1.88,0.77 3.76,1.55 5.65,2.33c7,2.91 14,5.82 20.99,8.77c3.11,1.31 6.24,2.6 9.36,3.9c1.81,0.75 1.81,0.75 3.65,1.51c1.14,0.46 2.28,0.92 3.46,1.4c0.99,0.4 1.99,0.8 3.01,1.22c3.16,0.95 5.6,1.16 8.88,0.87c1.49,-0.99 1.49,-0.99 3,-2c0.73,-4.12 0.73,-4.12 0,-8c-4.69,-3.59 -9.68,-5.7 -15.14,-7.85c-0.9,-0.36 -1.81,-0.72 -2.74,-1.1c-2.97,-1.19 -5.95,-2.37 -8.93,-3.55c-3.15,-1.26 -6.29,-2.52 -9.44,-3.78c-2.19,-0.88 -4.38,-1.76 -6.57,-2.64c-8.02,-3.21 -16.02,-6.47 -24.01,-9.75c-1.12,-0.46 -2.24,-0.92 -3.39,-1.39c-4.38,-1.8 -8.76,-3.6 -13.14,-5.41c-3.03,-1.24 -6.05,-2.49 -9.08,-3.73c-1.35,-0.56 -1.35,-0.56 -2.72,-1.13c-0.83,-0.34 -1.66,-0.68 -2.52,-1.03c-0.72,-0.29 -1.43,-0.59 -2.17,-0.89c-4.25,-1.49 -8.36,-1.93 -12.83,-2c-1.43,-0.04 -1.43,-0.04 -2.89,-0.08c-8.59,0.82 -16.59,4.48 -24.49,7.76c-1.75,0.72 -3.49,1.44 -5.24,2.16c-2.02,0.83 -4.03,1.66 -6.05,2.49c-8.43,3.48 -16.88,6.92 -25.33,10.36c-3.22,1.32 -6.44,2.63 -9.66,3.95c-12.38,5.05 -24.76,10.09 -37.16,15.11c-13.59,5.5 -27.19,11.02 -40.77,16.56c-2.11,0.85 -4.22,1.71 -6.32,2.57c-10.74,4.36 -21.45,8.76 -32.13,13.28c-1.31,0.55 -1.31,0.55 -2.66,1.11c-0.81,0.35 -1.62,0.69 -2.46,1.05c-0.71,0.3 -1.42,0.6 -2.15,0.91c-2.11,0.99 -2.11,0.99 -4.14,2.64c-1.87,1.38 -1.87,1.38 -3.87,1.38c-0.69,1.32 -1.34,2.65 -2,4c-0.5,0.91 -1.01,1.83 -1.53,2.78c-2.44,5.72 -2.04,12.03 -2.16,18.15c-0.03,1.26 -0.06,2.51 -0.1,3.81c-0.08,3.08 -0.15,6.17 -0.21,9.26c-15.67,0.91 -15.67,0.91 -21.49,-3.59c-6.03,-5.67 -8.61,-11.32 -8.94,-19.5c-0.02,-2.29 -0.02,-4.57 -0.01,-6.85c-0.01,-1.14 -0.03,-2.29 -0.06,-3.46c0.01,-7.78 0.65,-13.6 6.18,-19.34c4.78,-4.31 9.34,-7.03 15.3,-9.4c0.85,-0.36 1.71,-0.72 2.6,-1.08c2.82,-1.17 5.65,-2.32 8.48,-3.47c2.01,-0.83 4.02,-1.66 6.03,-2.5c4.2,-1.74 8.4,-3.47 12.6,-5.2c8.99,-3.71 17.94,-7.54 26.89,-11.37c4.92,-2.1 9.84,-4.19 14.76,-6.29c0.98,-0.41 1.95,-0.83 2.95,-1.25c10.25,-4.36 20.51,-8.69 30.77,-13.02c17.17,-7.23 34.31,-14.51 51.44,-21.81c1.13,-0.48 2.26,-0.96 3.42,-1.45c2.2,-0.94 4.39,-1.88 6.59,-2.82c2.12,-0.9 4.24,-1.8 6.36,-2.7c5.05,-2.15 10.08,-4.32 15.11,-6.51c0.95,-0.42 1.9,-0.83 2.87,-1.25c1.76,-0.77 3.52,-1.54 5.28,-2.32c7.59,-3.3 14.75,-5.18 23.06,-5.2z" fill="#FEF7E5" id="svg_3" transform="matrix(1 0 0 1 0 0)"/>
  <path d="m60,196c129.36,0 258.72,0 392,0c0,39.6 0,79.2 0,120c-14.87,0.01 -14.87,0.01 -30.05,0.01c-31.7,0.02 -63.4,0.06 -95.1,0.12c-4.92,0.01 -9.85,0.01 -14.77,0.02c-1.47,0.01 -1.47,0.01 -2.97,0.01c-15.88,0.02 -31.75,0.03 -47.63,0.04c-16.29,0 -32.58,0.02 -48.86,0.06c-10.06,0.02 -20.11,0.03 -30.16,0.02c-6.89,0 -13.78,0.01 -20.67,0.04c-3.98,0.01 -7.96,0.02 -11.93,0.01c-3.64,-0.02 -7.28,-0.01 -10.92,0.02c-1.95,0.01 -3.89,-0.01 -5.84,-0.02c-1.15,0.01 -2.3,0.03 -3.49,0.04c-0.99,0 -1.99,0 -3.01,0c-3.58,0.87 -4.61,2.62 -6.6,5.63c-0.33,0.66 -0.66,1.32 -1,2c-6.6,0 -13.2,0 -20,0c-0.66,-1.65 -1.32,-3.3 -2,-5c-10.3,-6.86 -24.63,-2.64 -37,-3c0,-39.6 0,-79.2 0,-120z" fill="#B4E8F0" id="svg_4" transform="matrix(1 0 0 1 0 0)"/>
  <path d="m0,0c0.33,0 0.66,0 1,0c0.29,1.13 0.58,2.27 0.88,3.44c0.37,1.17 0.74,2.35 1.12,3.56c2.59,1.3 4.47,1.13 7.37,1.14c1.72,0.01 1.72,0.01 3.47,0.02c1.27,0 2.54,0 3.85,0c1.36,0 2.71,0.01 4.07,0.01c3.73,0.02 7.47,0.02 11.2,0.03c4.03,0.01 8.05,0.02 12.07,0.04c6.98,0.02 13.95,0.04 20.93,0.05c10.08,0.02 20.16,0.05 30.25,0.08c16.36,0.05 32.72,0.09 49.08,0.13c15.89,0.04 31.79,0.08 47.68,0.13c1.47,0 1.47,0 2.97,0.01c4.91,0.01 9.82,0.02 14.74,0.04c40.77,0.11 81.55,0.22 122.32,0.32c0,39.93 0,79.86 0,121c-21.78,0 -43.56,0 -66,0c0,-0.33 0,-0.66 0,-1c21.45,0 42.9,0 65,0c0,-39.27 0,-78.54 0,-119c-89.1,0 -178.2,0 -270,0c1.98,6.93 3.96,13.86 6,21c0.72,2.52 1.43,5.04 2.17,7.63c9.02,31.24 21.52,60.67 36.83,89.37c41.91,0.33 83.82,0.66 127,1c0,0.33 0,0.66 0,1c-96.69,0 -193.38,0 -293,0c0,-39.93 0,-79.86 0,-121c17.33,-0.49 17.33,-0.49 35,-1c3.15,-2.7 3.15,-2.7 4,-6c6.6,0 13.2,0 20,0c0,-0.66 0,-1.32 0,-2z" fill="#F1E44E" id="svg_5" transform="translate(119,322)"/>
  <path d="m0,0c0.67,-0.02 1.33,-0.05 2.02,-0.07c13.9,-0.08 27.66,7.58 40.17,12.95c1.98,0.84 3.97,1.69 5.96,2.53c4.14,1.76 8.29,3.53 12.43,5.3c6.01,2.57 12.03,5.14 18.05,7.7c1.95,0.82 3.9,1.65 5.84,2.48c0.96,0.41 1.93,0.82 2.92,1.24c2.95,1.26 5.89,2.51 8.84,3.77c14.11,6.01 28.24,11.98 42.37,17.94c11.49,4.84 22.97,9.7 34.44,14.59c1.21,0.52 2.42,1.03 3.66,1.56c5.91,2.52 11.81,5.04 17.71,7.56c2.17,0.92 4.34,1.85 6.51,2.78c1.04,0.44 2.07,0.88 3.14,1.34c4.63,1.97 9.26,3.92 13.93,5.81c0.79,0.32 1.57,0.63 2.38,0.96c1.42,0.57 2.84,1.13 4.26,1.69c7.69,3.09 12.79,7.33 16.36,14.79c1.66,4.99 1.44,10.12 1.39,15.33c0.02,1.12 0.04,2.24 0.07,3.39c-0.02,8.22 -1.58,14.97 -7.01,21.35c-5.38,4.95 -11.26,6.56 -18.4,6.46c-0.98,-0.01 -1.96,-0.02 -2.97,-0.03c-0.75,-0.02 -1.49,-0.03 -2.26,-0.04c-0.01,-0.81 -0.02,-1.62 -0.03,-2.45c-0.05,-3.68 -0.13,-7.37 -0.22,-11.05c-0.01,-1.27 -0.03,-2.54 -0.04,-3.85c-0.19,-7.37 -0.84,-12.35 -4.71,-18.65c-0.33,-0.99 -0.66,-1.99 -1,-3c-1.66,-1.08 -1.66,-1.08 -4,-2c-1.19,-0.55 -2.37,-1.09 -3.6,-1.65c-10.73,-4.82 -21.55,-9.4 -32.46,-13.79c-1.77,-0.72 -3.54,-1.44 -5.31,-2.17c-2.6,-1.07 -5.21,-2.12 -7.83,-3.18c-0.78,-0.32 -1.56,-0.65 -2.37,-0.98c-4.64,-1.84 -8.35,-2.67 -13.43,-2.23c-2.33,0.95 -2.33,0.95 -4,4c-0.88,-0.41 -1.76,-0.82 -2.67,-1.25c-1.16,-0.54 -2.32,-1.07 -3.51,-1.63c-1.15,-0.53 -2.3,-1.07 -3.49,-1.62c-2.75,-1.24 -5.51,-2.41 -8.33,-3.5c-0.04,-1.08 -0.08,-2.15 -0.12,-3.25c-0.5,-3.87 -0.5,-3.87 -3.36,-5.75c-4,-2.45 -8.31,-4.13 -12.66,-5.85c-0.9,-0.36 -1.81,-0.72 -2.74,-1.1c-2.97,-1.19 -5.95,-2.37 -8.93,-3.55c-3.15,-1.26 -6.29,-2.52 -9.44,-3.78c-2.19,-0.88 -4.38,-1.76 -6.57,-2.64c-8.02,-3.21 -16.02,-6.47 -24.01,-9.75c-1.12,-0.46 -2.24,-0.92 -3.39,-1.39c-4.38,-1.8 -8.76,-3.6 -13.14,-5.41c-3.03,-1.24 -6.05,-2.49 -9.08,-3.73c-1.35,-0.56 -1.35,-0.56 -2.72,-1.13c-0.83,-0.34 -1.66,-0.68 -2.52,-1.03c-0.72,-0.29 -1.43,-0.59 -2.17,-0.89c-4.25,-1.49 -8.36,-1.93 -12.83,-2c-1.43,-0.04 -1.43,-0.04 -2.89,-0.08c-8.59,0.82 -16.59,4.48 -24.49,7.76c-1.75,0.72 -3.49,1.44 -5.24,2.16c-2.02,0.83 -4.03,1.66 -6.05,2.49c-8.43,3.48 -16.88,6.92 -25.33,10.36c-3.22,1.32 -6.44,2.63 -9.66,3.95c-12.38,5.05 -24.76,10.09 -37.16,15.11c-13.59,5.5 -27.19,11.02 -40.77,16.56c-2.11,0.85 -4.22,1.71 -6.32,2.57c-10.74,4.36 -21.45,8.76 -32.13,13.28c-1.31,0.55 -1.31,0.55 -2.66,1.11c-0.81,0.35 -1.62,0.69 -2.46,1.05c-0.71,0.3 -1.42,0.6 -2.15,0.91c-2.11,0.99 -2.11,0.99 -4.14,2.64c-1.87,1.38 -1.87,1.38 -3.87,1.38c-0.69,1.32 -1.34,2.65 -2,4c-0.5,0.91 -1.01,1.83 -1.53,2.78c-2.44,5.72 -2.04,12.03 -2.16,18.15c-0.03,1.26 -0.06,2.51 -0.1,3.81c-0.08,3.08 -0.15,6.17 -0.21,9.26c-15.67,0.91 -15.67,0.91 -21.49,-3.59c-6.03,-5.67 -8.61,-11.32 -8.94,-19.5c-0.02,-2.29 -0.02,-4.57 -0.01,-6.85c-0.01,-1.14 -0.03,-2.29 -0.06,-3.46c0.01,-7.78 0.65,-13.6 6.18,-19.34c4.78,-4.31 9.34,-7.03 15.3,-9.4c0.85,-0.36 1.71,-0.72 2.6,-1.08c2.82,-1.17 5.65,-2.32 8.48,-3.47c2.01,-0.83 4.02,-1.66 6.03,-2.5c4.2,-1.74 8.4,-3.47 12.6,-5.2c8.99,-3.71 17.94,-7.54 26.89,-11.37c4.92,-2.1 9.84,-4.19 14.76,-6.29c0.98,-0.41 1.95,-0.83 2.95,-1.25c10.25,-4.36 20.51,-8.69 30.77,-13.02c17.17,-7.23 34.31,-14.51 51.44,-21.81c1.13,-0.48 2.26,-0.96 3.42,-1.45c2.2,-0.94 4.39,-1.88 6.59,-2.82c2.12,-0.9 4.24,-1.8 6.36,-2.7c5.05,-2.15 10.08,-4.32 15.11,-6.51c0.95,-0.42 1.9,-0.83 2.87,-1.25c1.76,-0.77 3.52,-1.54 5.28,-2.32c7.59,-3.3 14.75,-5.18 23.06,-5.2z" fill="#E07657" id="svg_6" transform="translate(255.1875,14.625)"/>
  <path d="m0,0c6.6,0 13.2,0 20,0c0.99,1.98 1.98,3.96 3,6c2.34,1.17 3.71,1.13 6.31,1.13c1.36,0.01 1.36,0.01 2.75,0.01c0.99,0 1.99,0 3.02,0c1.04,0.01 2.09,0.01 3.17,0.01c2.28,0.01 4.56,0.02 6.84,0.02c3.61,0.01 7.21,0.02 10.82,0.04c10.25,0.05 20.5,0.1 30.76,0.12c6.26,0.01 12.53,0.04 18.79,0.08c2.39,0.01 4.79,0.01 7.18,0.01c3.34,0 6.68,0.02 10.02,0.05c1,-0.01 1.99,-0.01 3.01,-0.02c6.7,0.09 6.7,0.09 9.94,2.44c2.56,3.9 2,8.02 1.95,12.55c0.03,0.94 0.05,1.88 0.07,2.85c0,0.91 0,1.83 0,2.77c0,1.24 0,1.24 0,2.51c-0.95,3.65 -2.71,5.08 -5.63,7.43c-2.86,0.49 -5.12,0.67 -7.97,0.63c-1.2,0.01 -1.2,0.01 -2.43,0.02c-2.7,0.02 -5.39,0 -8.09,-0.02c-1.94,0.01 -3.89,0.02 -5.84,0.03c-5.36,0.02 -10.72,0.01 -16.08,-0.01c-5.78,-0.01 -11.56,0.01 -17.33,0.02c-11.33,0.03 -22.65,0.02 -33.97,0.01c-9.2,-0.01 -18.4,-0.02 -27.6,-0.01c-1.31,0 -2.62,0 -3.96,0c-2.66,0 -5.32,0 -7.97,0.01c-24.22,0.01 -48.44,0 -72.65,-0.03c-22.12,-0.02 -44.23,-0.02 -66.35,0c-24.83,0.03 -49.67,0.04 -74.51,0.02c-2.65,0 -5.29,0 -7.94,0c-1.3,0 -2.61,0 -3.95,0c-9.19,-0.01 -18.38,0 -27.57,0.01c-11.2,0.02 -22.4,0.01 -33.59,-0.01c-5.72,-0.02 -11.43,-0.02 -17.15,-0.01c-5.23,0.02 -10.46,0.01 -15.68,-0.02c-1.9,0 -3.8,0 -5.69,0.01c-2.57,0.02 -5.14,0 -7.71,-0.02c-0.74,0.01 -1.48,0.02 -2.25,0.03c-3.92,-0.07 -5.58,-0.55 -8.68,-3.05c-2.22,-2.84 -2.67,-4.01 -2.67,-7.55c0,-0.91 0,-1.83 0,-2.77c0.02,-0.94 0.04,-1.88 0.07,-2.85c-0.01,-0.95 -0.02,-1.89 -0.04,-2.87c0.08,-6.91 0.08,-6.91 2.28,-9.68c2.9,-2.36 4.34,-2.39 8.05,-2.39c1.76,-0.01 1.76,-0.01 3.56,-0.02c1.29,0.01 2.59,0.02 3.92,0.03c1.39,-0.01 2.77,-0.01 4.16,-0.02c3.81,-0.01 7.63,0 11.44,0.02c4.11,0.01 8.23,0 12.34,0c7.12,-0.01 14.25,-0.01 21.38,0c10.3,0.02 20.61,0.02 30.92,0c16.73,-0.02 33.46,-0.02 50.19,-0.02c1,0 2,0 3.03,0c8.13,0 16.26,0.01 24.38,0.01c7.11,0 14.21,0.01 21.31,0.01c1,0 2,0 3.03,0c16.67,0.01 33.34,-0.01 50,-0.03c10.29,-0.01 20.57,-0.01 30.86,0.01c7.04,0.01 14.08,0.01 21.13,0c4.06,-0.01 8.13,-0.01 12.2,0.01c3.72,0.02 7.44,0.01 11.16,0c1.99,-0.01 3.98,0.01 5.97,0.02c1.76,-0.01 1.76,-0.01 3.56,-0.02c1.02,0 2.04,0 3.08,0c3.38,-0.64 4.54,-1.83 6.65,-4.5c0.33,-0.99 0.66,-1.98 1,-3z" fill="#C5C5C5" id="svg_7" transform="translate(360,459)"/>
  <path d="m0,0c37.95,0 75.9,0 115,0c-0.33,3.63 -0.66,7.26 -1,11c-1.37,18.3 -1.22,36.66 -1,55c0.01,1.08 0.03,2.15 0.04,3.26c0.25,15.2 2.32,30.08 4.61,45.09c0.35,2.65 0.35,2.65 0.35,5.65c-1,0 -1,0 -2.02,0c-6.95,0.02 -13.89,0.08 -20.83,0.15c-2.59,0.03 -5.19,0.04 -7.78,0.05c-3.72,0 -7.44,0.05 -11.17,0.09c-1.16,0 -2.32,0 -3.51,-0.01c-6.28,-0.05 -6.28,-0.05 -11.39,3.14c-0.77,1.53 -1.54,3.05 -2.3,4.58c-6.6,0 -13.2,0 -20,0c-0.66,-1.65 -1.32,-3.3 -2,-5c-10.3,-6.86 -24.63,-2.64 -37,-3c0,-39.6 0,-79.2 0,-120z" fill="#80D8E6" id="svg_8" transform="translate(60,196)"/>
  <path d="m0,0c0.99,0.49 0.99,0.49 2,1c-0.36,0.95 -0.36,0.95 -0.73,1.92c-9.92,26.08 -17.85,51.99 -24.15,79.21c-0.3,1.3 -0.3,1.3 -0.61,2.63c-0.28,1.24 -0.28,1.24 -0.56,2.5c-0.16,0.7 -0.32,1.4 -0.49,2.13c-0.68,3.84 -1.03,7.73 -1.46,11.61c90.09,0 180.18,0 273,0c0,-13.2 0,-26.4 0,-40c0.33,0 0.66,0 1,0c0,13.53 0,27.06 0,41c-129.36,0 -258.72,0 -392,0c0,-13.53 0,-27.06 0,-41c6.75,-5.62 6.75,-5.62 9.84,-6.84c1.05,-0.43 1.05,-0.43 2.12,-0.86c1.12,-0.43 1.12,-0.43 2.27,-0.87c1.2,-0.49 1.2,-0.49 2.43,-0.98c1.74,-0.69 3.48,-1.38 5.22,-2.06c2.81,-1.1 5.61,-2.22 8.4,-3.33c2.95,-1.18 5.89,-2.35 8.83,-3.52c9.29,-3.69 18.53,-7.46 27.77,-11.25c4.52,-1.86 9.04,-3.71 13.56,-5.56c0.91,-0.37 1.83,-0.75 2.78,-1.13c10.84,-4.44 21.68,-8.88 32.52,-13.31c2.21,-0.9 4.41,-1.8 6.61,-2.7c3.06,-1.25 6.12,-2.5 9.19,-3.75c0.91,-0.38 1.83,-0.75 2.77,-1.14c0.84,-0.34 1.68,-0.68 2.55,-1.04c0.73,-0.29 1.46,-0.59 2.22,-0.9c1.62,-0.64 3.27,-1.21 4.92,-1.76z" fill="#FAE6B5" id="svg_9" transform="translate(204,79)"/>
  <path d="m0,0c0,3.7 -1.1,5.36 -2.89,8.59c-0.61,1.12 -1.21,2.23 -1.84,3.38c-0.65,1.18 -1.31,2.35 -1.96,3.53c-1.25,2.28 -2.51,4.56 -3.76,6.84c-0.62,1.12 -1.24,2.23 -1.87,3.38c-1.57,3.06 -2.71,6.08 -3.88,9.3c-1.96,4.37 -3.78,5.98 -8.15,7.93c-2.22,0.81 -4.46,1.57 -6.71,2.3c-1.9,0.68 -3.8,1.36 -5.69,2.05c-1.35,0.48 -2.69,0.96 -4.03,1.44c-7,2.49 -13.83,5.37 -20.66,8.27c-15.43,6.55 -30.99,12.79 -46.56,18.99c-15.16,6.04 -30.3,12.12 -45.38,18.38c-0.72,0.29 -1.44,0.59 -2.19,0.9c-7.84,3.24 -15.52,6.64 -23.06,10.54c-2.37,1.18 -2.37,1.18 -5.37,2.18c-1.1,1.7 -1.1,1.7 -2,4c-0.75,1.37 -0.75,1.37 -1.52,2.78c-2.46,5.73 -2.06,12.03 -2.17,18.16c-0.03,1.25 -0.07,2.51 -0.1,3.8c-0.08,3.09 -0.15,6.17 -0.21,9.26c-15.67,0.92 -15.67,0.92 -21.49,-3.58c-6.03,-5.67 -8.62,-11.32 -8.94,-19.51c-0.02,-2.28 -0.02,-4.56 -0.01,-6.85c-0.02,-1.14 -0.04,-2.28 -0.06,-3.46c0.01,-7.77 0.64,-13.6 6.18,-19.34c4.78,-4.31 9.34,-7.03 15.29,-9.4c0.86,-0.35 1.72,-0.71 2.61,-1.08c2.82,-1.17 5.65,-2.32 8.48,-3.47c2.01,-0.83 4.02,-1.66 6.03,-2.49c4.2,-1.74 8.39,-3.47 12.59,-5.2c9,-3.72 17.95,-7.55 26.9,-11.37c4.92,-2.1 9.84,-4.2 14.76,-6.29c0.97,-0.42 1.95,-0.83 2.95,-1.26c11.16,-4.74 22.33,-9.45 33.5,-14.16c11.49,-4.85 22.97,-9.71 34.44,-14.6c1.21,-0.51 2.42,-1.03 3.66,-1.56c5.9,-2.52 11.8,-5.03 17.7,-7.55c11.77,-5.03 23.56,-10 35.41,-14.83z" fill="#C95834" id="svg_10" transform="translate(235,19)"/>
  <path d="m0,0c1.31,-0.03 1.31,-0.03 2.65,-0.06c2.94,-0.06 5.88,-0.09 8.81,-0.12c2.11,-0.04 4.21,-0.08 6.32,-0.12c6.92,-0.12 13.83,-0.19 20.75,-0.26c1.18,-0.02 2.36,-0.03 3.57,-0.04c11.12,-0.12 22.24,-0.22 33.36,-0.28c14.21,-0.09 28.41,-0.25 42.61,-0.51c10,-0.18 19.99,-0.27 29.99,-0.3c5.97,-0.02 11.93,-0.08 17.89,-0.23c37.36,-0.91 37.36,-0.91 44.91,4.82c5.14,5.18 8.24,10.96 10.5,17.87c1.32,3.57 3.11,6.6 5.06,9.87c-29.73,0.11 -59.45,0.2 -89.18,0.25c-3.5,0.01 -7.01,0.01 -10.52,0.02c-0.7,0 -1.4,0 -2.12,0c-11.31,0.03 -22.62,0.07 -33.94,0.11c-11.6,0.05 -23.21,0.08 -34.82,0.09c-6.52,0 -13.04,0.02 -19.56,0.05c-6.13,0.04 -12.26,0.05 -18.4,0.04c-2.25,0 -4.5,0.01 -6.76,0.03c-3.07,0.03 -6.14,0.02 -9.22,0.01c-1.34,0.02 -1.34,0.02 -2.71,0.04c-4.44,-0.05 -6.21,-0.21 -9.82,-3.03c-2.11,-2.84 -2.58,-4.07 -2.58,-7.56c0,-0.91 0,-1.82 -0.01,-2.76c0.03,-0.94 0.05,-1.89 0.08,-2.86c-0.01,-0.94 -0.02,-1.89 -0.04,-2.86c0.08,-6.84 0.08,-6.84 2.1,-9.68c3.53,-2.67 6.82,-2.51 11.08,-2.53z" fill="#A7A7A7" id="svg_11" transform="translate(27.580276489257813,466.3642120361328)"/>
  <path d="m273,212c5.13,3.24 10.69,7.14 12.68,13.15c2.97,15.48 -3.26,25.85 -11.6,38.2c-3.41,4.97 -6.89,9.89 -10.41,14.78c-1.22,1.71 -2.4,3.45 -3.57,5.2c0.73,0.01 1.46,0.02 2.22,0.03c3.32,0.05 6.65,0.13 9.97,0.22c1.15,0.01 2.3,0.03 3.49,0.04c1.66,0.05 1.66,0.05 3.36,0.1c1.54,0.03 1.54,0.03 3.1,0.06c3.59,0.69 5.3,1.97 7.86,4.55c0.61,3.79 0.7,5.93 -1.43,9.18c-3.9,2.76 -7.53,2.41 -12.19,2.38c-0.94,0.01 -1.87,0.02 -2.84,0.02c-1.98,0.01 -3.96,0.01 -5.94,-0.01c-3.02,-0.01 -6.04,0.02 -9.07,0.06c-1.92,0 -3.85,0 -5.77,0c-0.91,0.01 -1.81,0.02 -2.74,0.04c-4.47,-0.07 -6.43,-0.22 -10.09,-3c-1.93,-2.67 -1.93,-2.67 -2.53,-6.04c0.74,-4.45 2.58,-7.29 5.23,-10.82c1,-1.4 2.01,-2.8 3.02,-4.21c0.54,-0.74 1.08,-1.48 1.64,-2.24c2.43,-3.35 4.82,-6.74 7.2,-10.14c1.18,-1.68 2.37,-3.36 3.56,-5.04c9.95,-13.3 9.95,-13.3 11.95,-29.18c-2.91,-3.21 -6.11,-3.92 -10.37,-4.31c-4.38,0.37 -5.66,1.1 -8.63,4.31c-1.15,2.02 -2.16,4.06 -3.1,6.19c-0.9,1.81 -0.9,1.81 -2.9,3.81c-5.68,0.54 -5.68,0.54 -8,0c-2.15,-2.11 -2.94,-3.36 -3.21,-6.37c0.97,-8.76 4.43,-13.51 11.15,-19.08c8.22,-6.18 18.89,-6.56 27.96,-1.88z" fill="#020303" id="svg_13" transform="matrix(1 0 0 1 0 0)"/>
 </g>
</svg>